Coordinates
version=1
nRows=11
nColumns=42
inDegrees=yes

Units are S.I. units (second, meters, Newtons, ...)
If the header above contains a line with 'inDegrees', this indicates whether rotational values are in degrees (yes) or radians (no).

endheader
time	pelvis_tilt	pelvis_list	pelvis_rotation	pelvis_tx	pelvis_ty	pelvis_tz	hip_flexion_r	hip_adduction_r	hip_rotation_r	knee_angle_r	knee_adduction_r	knee_angle_r_beta	ankle_angle_r	subtalar_angle_r	mtp_angle_r	hip_flexion_l	hip_adduction_l	hip_rotation_l	knee_angle_l	knee_adduction_l	knee_angle_l_beta	ankle_angle_l	subtalar_angle_l	mtp_angle_l	lumbar_extension	lumbar_bending	lumbar_rotation	arm_flex_r	arm_add_r	arm_rot_r	elbow_flex_r	pro_sup_r	wrist_flex_r	wrist_dev_r	arm_flex_l	arm_add_l	arm_rot_l	elbow_flex_l	pro_sup_l	wrist_flex_l	wrist_dev_l
      0.42000000	      9.82726150	      0.33831674	      0.10032604	     -0.40813242	      0.84286603	     -0.29780983	     -9.44945538	      0.90649322	    -12.11196810	     11.79081884	      4.12332588	      0.20578861	     16.74235154	      5.95216099	     -7.84521389	     11.84013017	     -5.79498793	     -7.48001974	     60.75742752	     -0.39761912	      1.06041716	     10.27386716	    -12.23463358	     -7.84521389	    -21.33382908	     -1.28010142	      4.34019413	      1.43607444	    -13.77892083	    -10.34022521	     33.80402654	     90.00000001	      0.00000000	      0.00000000	      0.26559142	     -9.09597288	    -21.95073673	     35.68828637	     90.00000001	      0.00000000	      0.00000000
      0.43000000	      9.75774568	      0.75324540	     -0.42452850	     -0.39381508	      0.84360948	     -0.29604476	    -11.42583040	      0.59924920	    -10.79584934	      9.87985742	      4.39591274	      0.17243604	     16.30455986	      4.72767323	     -7.79668094	     13.16421697	     -5.00149009	     -8.05519188	     57.91182622	     -0.16160113	      1.01075204	     10.53520486	    -12.49241546	     -7.79668094	    -21.23486912	     -2.06158205	      5.23054998	      1.54389651	    -14.13181873	     -9.28284715	     34.32935234	     90.00000001	      0.00000000	      0.00000000	     -0.22569392	     -9.07680213	    -23.91134826	     34.83552205	     90.00000001	      0.00000000	      0.00000000
      0.44000000	      9.73455003	      1.17571580	     -0.99529258	     -0.37931436	      0.84386533	     -0.29427852	    -13.18159912	      0.17062441	    -10.71720736	      8.53573105	      4.52320244	      0.14897661	     16.59487228	      5.50696485	     -7.78402694	     14.21187048	     -4.23825938	     -8.79183631	     54.64393973	      0.08725575	      0.95371666	     10.71387878	    -12.76256931	     -7.78402694	    -21.14580254	     -2.84154051	      6.20506600	      1.64383959	    -14.39300389	     -8.91452960	     34.87629979	     90.00000001	      0.00000000	      0.00000000	     -0.84419024	     -9.24721959	    -24.99526641	     34.09545484	     90.00000001	      0.00000000	      0.00000000
      0.45000000	      9.55985057	      1.43299334	     -1.56635856	     -0.36485104	      0.84343546	     -0.29260560	    -14.68972980	     -0.11670362	    -10.67868785	      7.33291827	      4.66357769	      0.12798357	     16.77922805	      6.32676023	     -7.77460034	     15.31053888	     -3.70102554	     -9.60322062	     51.14366754	      0.34338728	      0.89262539	     10.96244163	    -13.18716329	     -7.77460034	    -20.87553235	     -3.41409838	      7.19154328	      1.76621518	    -14.73735466	     -8.44486638	     35.37973787	     90.00000001	      0.00000000	      0.00000000	     -1.51277550	     -9.39015630	    -26.21347298	     33.37592746	     90.00000001	      0.00000000	      0.00000000
      0.46000000	      9.67286539	      1.74093168	     -2.11557669	     -0.35021660	      0.84297112	     -0.29112026	    -16.52202197	     -0.51418044	    -10.92378061	      6.16705183	      4.84680733	      0.10763536	     16.99247719	      6.93064316	     -7.76189548	     15.80109116	     -3.06786036	    -10.50437756	     47.13867750	      0.59063162	      0.82272513	     10.75045088	    -13.74172272	     -7.76189548	    -20.91059400	     -4.01400465	      8.06432241	      1.94242194	    -15.16501901	     -7.69227859	     35.93059908	     90.00000001	      0.00000000	      0.00000000	     -2.12617596	     -9.42957723	    -28.19040110	     32.76416560	     90.00000001	      0.00000000	      0.00000000
      0.47000000	      9.58293762	      1.81526285	     -2.62185519	     -0.33562101	      0.84176961	     -0.28962510	    -18.03797950	     -0.64909556	    -11.22287659	      5.18247508	      5.01669378	      0.09045125	     17.21506265	      7.67077294	     -7.75044760	     16.43564522	     -2.76583744	    -11.41407218	     43.05313624	      0.89134279	      0.75141898	     10.83368131	    -13.96891822	     -7.75044760	    -20.71711858	     -4.34191954	      8.97685290	      2.12675630	    -15.62015421	     -7.05053466	     36.37368878	     90.00000001	      0.00000000	      0.00000000	     -2.78266971	     -9.50852096	    -29.93224063	     32.14677392	     90.00000001	      0.00000000	      0.00000000
      0.48000000	      9.51168841	      1.87976987	     -3.05541164	     -0.32100513	      0.84022106	     -0.28839655	    -19.47471542	     -0.81934225	    -11.86859610	      4.44610790	      5.23393123	      0.07759922	     17.45248981	      8.41594126	     -7.73537571	     16.87854238	     -2.43099528	    -12.38426994	     38.74152466	      1.15611058	      0.67616716	     10.85270996	    -13.85187942	     -7.73537571	    -20.55270561	     -4.61087069	      9.74121560	      2.37990632	    -16.10487194	     -6.29448399	     36.81063917	     90.00000001	      0.00000000	      0.00000000	     -3.44235745	     -9.52765149	    -32.15024012	     31.63095019	     90.00000001	      0.00000000	      0.00000000
      0.49000000	      9.41701586	      1.81095315	     -3.46946479	     -0.30626749	      0.83827882	     -0.28725586	    -20.81715364	     -0.82434551	    -12.57098053	      3.87315245	      5.37315201	      0.06759926	     17.80145020	      9.37863706	     -7.72142514	     17.17743851	     -2.30076591	    -13.34191795	     34.35394891	      1.58115445	      0.59958952	     11.12669586	    -13.10843392	     -7.72142514	    -20.35005000	     -4.70820534	     10.48550039	      2.66252931	    -16.59794487	     -5.69956811	     37.17075357	     90.00000001	      0.00000000	      0.00000000	     -4.17139586	     -9.57394393	    -34.03700039	     31.08905925	     90.00000001	      0.00000000	      0.00000000
      0.50000000	      9.20058809	      1.49720950	     -3.90530294	     -0.29164677	      0.83589872	     -0.28587760	    -21.93757965	     -0.54680655	    -13.12717975	      3.45895814	      5.44665407	      0.06037021	     18.19545796	     10.27725677	     -7.71275634	     17.47692511	     -2.54923865	    -14.04388858	     30.00659135	      2.27702313	      0.52371382	     11.63768229	    -11.69608390	     -7.71275634	    -20.03980875	     -4.56561011	     11.36103159	      3.00192373	    -17.05042367	     -5.26952105	     37.36864923	     90.00000001	      0.00000000	      0.00000000	     -4.95073730	     -9.69236618	    -35.35728217	     30.59232974	     90.00000001	      0.00000000	      0.00000000
      0.51000000	      9.11948545	      1.38945206	     -4.29835133	     -0.27672469	      0.83341866	     -0.28499052	    -23.11833326	     -0.62162395	    -14.13529543	      3.33682887	      5.63093589	      0.05823865	     18.67785994	     11.51796018	     -7.69584188	     17.44546967	     -2.41221145	    -14.98249165	     25.56500056	      2.74590634	      0.44619343	     11.87025819	     -9.77572318	     -7.69584188	    -19.84331653	     -4.59487586	     11.96587728	      3.37001567	    -17.56912773	     -4.52511563	     37.64990334	     90.00000001	      0.00000000	      0.00000000	     -5.63342261	     -9.65075714	    -37.99043710	     30.11907981	     90.00000001	      0.00000000	      0.00000000
      0.52000000	      8.94113576	      0.96101840	     -4.64138904	     -0.26187581	      0.83064592	     -0.28383555	    -24.18474869	     -0.23557301	    -14.60363665	      3.20286316	      5.60490655	      0.05590051	     19.01041983	     12.28801016	     -7.68872121	     17.43979376	     -2.77342994	    -15.44682031	     21.41978748	      3.58277598	      0.37384582	     12.38330192	     -7.50377529	     -7.68872121	    -19.58276416	     -4.28210258	     12.62473752	      3.78903014	    -17.98641780	     -4.22401283	     37.78314283	     90.00000001	      0.00000000	      0.00000000	     -6.52305839	     -9.76956420	    -39.11828904	     29.70213423	     90.00000001	      0.00000000	      0.00000000
